<svg width="70" height="93" viewBox="0 0 70 93" fill="none" xmlns="http://www.w3.org/2000/svg">
<path d="M40.0511 33.1347C40.0692 33.11 40.0864 33.0848 40.1053 33.0607C41.285 31.5635 50.3789 30.2139 52.6248 30.0062C57.2696 29.577 62.9714 29.9591 66.6765 33.1153C68.2537 34.4587 69.3616 36.9106 69.5068 38.9667C69.9351 45.0305 66.0356 50.999 62.2086 55.3719C51.5326 67.5709 32.7559 78.3347 16.3452 79.4006C11.9709 79.6847 6.44657 79.2774 2.98595 76.2458C1.1508 74.638 0.179498 72.572 0.0239807 70.1459C-0.338113 64.4975 3.46433 58.3118 7.10073 54.2259C7.37902 53.9131 7.77554 53.4267 8.22533 53.4028C8.39852 53.3936 8.48362 53.4161 8.63836 53.4887L8.79024 53.7937C8.61121 55.2143 7.88754 56.1425 7.25962 57.3682C4.90348 61.9676 4.43823 68.0209 9.65215 70.8947C14.8056 73.7352 22.4994 72.783 27.958 71.1388C39.1783 67.7012 52.7132 59.455 58.7684 49.0166C67.7115 33.5998 52.6509 29.7904 40.4505 33.2715L40.0511 33.1347Z" fill="#1AFEAF"/>
<path d="M8.79656 26.4209C9.20257 26.819 9.5318 30.04 9.62352 30.7789C10.8393 40.5702 15.2814 49.4397 24.0589 54.4835C28.8062 57.2115 33.9401 59.0214 39.0313 61.0289C40.681 61.6794 42.2634 62.5244 43.9125 63.1371C43.187 63.8782 42.1419 64.4346 41.2426 64.9468C40.0994 65.654 39.1029 66.321 37.802 66.6774C36.1467 66.3012 34.2406 65.3138 32.6463 64.884C21.0902 61.7682 6.72144 56.9561 8.34924 42.1038C8.66599 39.2135 8.52529 35.6129 8.73589 32.6285C8.87439 30.6655 8.66807 28.4504 8.79656 26.4209Z" fill="#00629B"/>
<path d="M8.63831 53.4889C9.01066 52.8107 8.49019 51.2579 8.72821 50.3777L8.88867 50.3813C9.57817 51.4919 9.47449 52.0637 10.5977 53.6746C14.6245 59.4499 20.24 61.6238 26.765 63.7184C28.4452 64.2578 34.7926 65.9876 36.6895 67.0169C36.6847 67.0995 36.6797 67.1822 36.6748 67.2649C35.9974 68.0506 28.5415 70.8616 27.3335 70.8561C25.6062 70.848 19.0039 68.4596 17.4422 67.6692C16.4064 67.1403 15.4387 66.4873 14.5608 65.7244C11.4583 63.0443 9.89621 59.1484 9.1567 55.1797C9.06432 54.6836 9.07173 54.1835 8.82721 53.7351L8.79019 53.794L8.63831 53.4889Z" fill="#00629B"/>
<path d="M48.6137 67.644C48.9819 67.6334 49.201 67.7606 49.4202 68.0566C52.9105 72.766 52.766 79.0263 51.3967 84.4646C51.2563 85.0221 51.2799 85.9825 51.1824 86.5283C50.9809 87.6574 50.2836 92.015 49.618 92.6196C49.4784 92.3909 49.6674 91.1664 49.6438 90.7198C49.2172 82.671 45.7178 79.0006 38.4526 75.3319C37.9001 75.0603 36.9703 74.8149 37.0904 74.1641C37.2682 73.964 43.4857 70.8387 43.8983 70.7821C44.2964 70.8968 44.9172 71.5078 45.2469 71.8033C47.7262 74.0274 49.4941 76.9338 50.329 80.1582C50.4282 80.5294 51.0191 83.3262 51.1208 83.419C51.1432 83.3839 51.1657 83.3489 51.1881 83.3139C51.9791 78.982 47.2529 72.1805 44.4076 70.4395C45.1873 69.7507 47.587 68.2994 48.6137 67.644Z" fill="#00629B"/>
<path d="M15.976 0.110352C16.1611 0.698573 16.192 1.09227 16.2016 1.5957L16.2094 2.14746L16.2426 2.78809C17.0353 16.1804 23.1792 26.2563 35.73 31.4766C36.9442 31.9817 38.4802 32.991 39.8022 33.209L40.0512 33.1348L40.4507 33.2715C41.2087 35.389 55.9711 36.1277 57.5708 50.249C57.2948 50.8248 56.0785 52.523 55.6001 53.3359C55.2864 51.9193 54.2176 49.7498 53.3491 48.5645C45.1551 37.381 28.3032 39.3965 19.0805 29.5146C17.0587 27.3356 14.6954 23.3806 14.6245 20.3555C14.4937 14.7726 15.315 9.25122 15.5913 3.69434L15.6391 2.58301C15.6094 1.72857 15.5023 0.780167 15.8374 0L15.976 0.110352Z" fill="#2A86B7" fill-opacity="0.980392"/>
<path d="M14.9196 23.9301C15.3406 24.2107 15.6017 25.2127 15.7702 25.7357V25.7367C16.271 26.9255 17.7411 28.8938 18.6246 29.8578C27.2844 39.3059 42.628 38.0217 51.483 47.1566C53.6026 49.3432 53.9236 51.0305 55.1745 53.3939C54.3792 54.601 53.4065 55.577 52.3805 56.5853C46.7075 49.3086 36.9075 46.73 28.61 43.7308C25.3134 42.5392 22.707 41.7429 20.0905 39.2933C16.493 35.9252 14.9433 30.0732 14.8483 25.267C14.8189 24.8491 14.7151 24.2585 14.9196 23.9301Z" fill="#06547E" fill-opacity="0.980392"/>
</svg>
