<svg width="64" height="64" viewBox="0 0 64 64" fill="none" xmlns="http://www.w3.org/2000/svg">
<path d="M20.6951 56.8821C21.7836 56.8077 21.8809 57.2621 22.2584 57.999C22.6406 58.7451 23.3828 60.9548 24.0351 61.3136C24.0802 61.312 24.1521 61.3231 24.184 61.2908C24.4792 60.9922 24.363 57.6106 24.3527 56.9924L25.1669 56.9607C25.1054 58.3484 25.3608 60.3471 24.9978 61.628C24.9249 61.8854 24.5838 62.0386 24.3477 62.1326C24.2277 62.1357 24.1076 62.1353 23.9876 62.1313C22.2937 62.0725 21.972 57.7583 20.8891 57.7223C20.3159 58.2356 20.9712 61.688 20.5334 62.0409C20.3517 62.0575 19.988 62.1153 19.8428 62.048C19.6772 61.6373 19.8128 58.719 19.7731 58.0623C19.7364 57.4548 20.106 57.0497 20.6951 56.8821Z" fill="#010101"/>
<path d="M23.0753 50.0307C23.8041 50.0126 24.6379 50.0401 25.3741 50.0498C25.3308 50.3488 25.3203 50.6445 25.3044 50.9459C24.3875 50.9374 23.0492 50.905 22.1629 51.0106C21.9327 52.4364 22.6053 52.1124 23.7248 52.171C24.1999 52.1958 24.9267 52.2042 25.2797 52.5698C25.8068 53.1158 25.9588 54.0721 25.3635 54.6348C24.7778 55.1924 24.3131 55.1416 23.5741 55.1426C23.2203 55.1435 21.5461 55.1705 21.3348 55.0919C21.2346 54.8725 21.2774 54.5618 21.2899 54.3125C21.6952 54.3133 24.5127 54.4343 24.6797 54.0986C25.4631 52.5235 22.984 53.1569 22.2347 52.884C21.903 52.7631 21.8447 52.7623 21.5235 52.5607C21.133 51.9966 20.9986 51.0786 21.5202 50.5391C21.9784 50.065 22.4629 50.0584 23.0753 50.0307Z" fill="#010101"/>
<path d="M50.0433 54.4371C50.3697 53.6673 51.4296 50.3487 52.0489 50.0754C52.3179 49.9567 52.9098 49.966 53.1734 50.098C53.3547 50.1887 53.4584 50.322 53.5594 50.4935C54.1547 51.5041 54.9063 54.0009 55.3797 55.2096C55.0007 55.1626 54.7801 55.1293 54.3951 55.146C54.1611 54.4811 53.053 51.2596 52.669 50.9315C52.5834 50.9242 52.5033 50.8986 52.4557 50.9684C51.7975 51.9352 51.2748 54.0154 50.7313 55.0093C50.5086 54.7449 50.4913 54.804 50.1667 54.7771C50.0303 54.6573 50.0694 54.6563 50.0433 54.4371Z" fill="#010101"/>
<path d="M47.4844 56.9674C48.1579 56.9498 48.8563 56.9689 49.5319 56.9782C49.5175 57.2276 49.5179 57.5066 49.5127 57.7588C48.9051 57.7713 47.2448 57.7157 46.7817 57.8974C45.8292 58.2714 45.5497 60.6754 46.8011 61.0329C47.2566 61.1631 48.3234 61.2527 48.7717 61.0577C48.8927 60.9374 48.9375 60.7994 48.9892 60.6438C49.3126 59.6699 48.241 59.8133 47.6444 59.7291C47.3881 59.6929 47.3701 59.6939 47.2553 59.4792C47.2628 59.2766 47.2852 59.2416 47.3721 59.0649L47.5568 59.0109C49.5171 58.9556 50.0779 59.5221 49.5538 61.4587C48.284 62.6644 45.2027 62.1599 45.1584 59.9968C45.1188 58.0721 45.4127 57.1402 47.4844 56.9674Z" fill="#010101"/>
<path d="M38.102 56.9658C38.6983 56.9413 39.5878 56.9193 40.1707 56.9849C40.8673 57.0634 41.1548 57.2901 41.5406 57.8118C41.6842 59.046 41.6144 59.3746 40.5506 60.035C40.9294 60.7353 41.3336 61.4216 41.7624 62.0926L40.7602 62.0015C40.3886 61.4044 39.9732 60.7425 39.6543 60.1222C39.2211 60.0923 38.7608 60.0921 38.3124 60.063C37.8706 60.2381 38.3679 61.4568 38.0604 61.9473C37.841 62.0929 37.6954 62.0585 37.4094 62.0806L37.3011 61.9733C37.2396 61.549 37.216 60.0305 37.3217 59.6693C37.5859 58.7665 39.8407 59.4958 40.5002 59.128C40.6081 59.0332 40.719 58.7701 40.7445 58.6369C41.0422 57.0807 37.6257 58.18 37.2343 57.618C37.2295 57.4161 37.2104 57.2808 37.2951 57.0973C37.5259 56.9346 37.7898 56.9759 38.102 56.9658Z" fill="#010101"/>
<path d="M41.1286 50.0682C41.8724 50.0381 42.7004 50.001 43.4426 50.0175C44.2622 50.0357 44.7423 50.1482 45.3048 50.7439C45.5944 51.7722 45.5561 52.6838 44.4046 53.0889C44.5973 53.4327 44.7868 53.7782 44.9729 54.1256C44.987 54.3408 45.0349 54.597 44.9232 54.7662C44.7226 54.8229 44.6615 54.7108 44.3399 54.7042C44.0275 54.1122 43.8058 53.6758 43.4334 53.1186C42.9634 53.124 42.4933 53.1195 42.0235 53.1048C41.9036 53.7794 42.0032 54.555 41.8679 55.0547C41.7247 55.1791 41.4293 55.2294 41.2627 55.136C41.0792 54.7538 41.1287 53.4207 41.1734 52.9735C41.3191 51.5136 44.4359 53.2134 44.7158 51.6727C44.7728 51.3589 44.2127 50.9262 43.9033 50.9303C42.9885 50.9422 42.0358 50.9125 41.1174 50.973C41.1257 50.6742 41.1254 50.3678 41.1286 50.0682Z" fill="#010101"/>
<path d="M47.7125 50.0317C48.427 50.0101 49.2039 50.0411 49.9229 50.0561C49.8824 50.3665 49.8843 50.6242 49.8816 50.9346L48.3639 50.945C48.3721 51.8694 48.4529 54.1172 48.3004 55.09C48.2903 55.1544 48.1561 55.1698 48.0751 55.1911C47.8985 55.2133 47.7788 55.2497 47.6248 55.1711C47.4425 54.8839 47.5554 51.5293 47.571 50.9691C47.0737 50.9562 46.4989 50.9222 46.0149 51.0013L46.0298 50.0603L47.7125 50.0317Z" fill="#010101"/>
<path d="M34.2837 50.0602C35.5491 50.0354 36.9228 49.9991 38.1818 50.0475C38.1703 50.3365 38.1488 50.6667 38.1615 50.9523C37.6449 50.9425 37.1283 50.9434 36.6118 50.9549C36.6279 52.205 36.6319 53.4553 36.6239 54.7055C36.4276 54.8334 36.2688 54.8418 36.0597 54.7595C35.904 54.6024 35.8752 54.3222 35.8119 54.0837C35.7531 53.1029 35.8006 51.9531 35.8299 50.9668C35.3665 50.9603 34.6936 50.9321 34.2518 50.9866L34.2837 50.0602Z" fill="#010101"/>
<path d="M13.6894 50.0515L14.5751 50.0437C14.5241 50.9733 14.5787 51.9316 14.5718 52.8653C14.567 53.5199 14.5578 54.1888 14.0492 54.682C13.4724 55.2413 12.6632 55.1697 11.9219 55.158C11.5513 55.1306 11.3583 55.1498 10.9958 55.183C10.9944 55.0443 10.9616 54.4155 11.1173 54.35C11.4573 54.2072 13.2851 54.4565 13.4569 54.0533C13.8446 53.1433 13.6808 51.0576 13.6894 50.0515Z" fill="#010101"/>
<path d="M39.5863 50.0238C39.7187 50.0257 39.728 50.0418 39.8424 50.1201C39.8899 50.5982 39.8663 51.8525 39.8604 52.3672C39.8524 53.0631 39.8956 54.4301 39.8083 55.08C39.6757 55.2102 39.7382 55.1706 39.5001 55.1935C39.2936 55.2218 39.1548 55.2697 39.0138 55.1166C38.9738 54.5498 38.9538 50.5512 39.0298 50.1359C39.1812 50.014 39.3876 50.0315 39.5863 50.0238Z" fill="#010101"/>
<path d="M53.6512 57.0052C53.8923 56.9841 54.2206 56.9444 54.4256 57.0602C54.5099 57.2419 54.4796 61.5467 54.4523 62.0571C54.1806 62.0422 53.9098 62.0714 53.6385 62.0932C53.6294 60.3972 53.6337 58.7012 53.6512 57.0052Z" fill="#010101"/>
<path d="M12.1288 57.1849C13.248 56.8345 14.6927 56.9522 15.872 56.9828C15.8346 57.2493 15.83 57.5055 15.8202 57.7738C15.2824 57.7738 13.0336 57.6506 12.7499 58.0052C11.6016 59.4413 14.4584 59.1367 15.1561 59.1312C15.3592 59.1404 15.5764 59.1227 15.7343 59.2308C15.8134 59.4583 15.811 59.3687 15.7753 59.5863C15.4335 60.0345 13.6165 59.8685 13.0341 59.8451C12.9659 59.8721 12.7155 59.974 12.6864 60.0199C11.8206 61.3865 13.8878 61.1488 14.5966 61.1498C15.0638 61.1503 15.4439 61.1532 15.8573 61.1595L15.8017 62.0736C14.465 62.0465 10.7358 62.5524 11.7255 60.0258C11.7502 59.9658 12.0826 59.6146 12.0634 59.5638C11.6864 58.5803 11.0991 58.1779 12.1288 57.1849Z" fill="#010101"/>
<path d="M31.1637 56.9424C31.8765 56.9325 32.5857 56.9621 33.2984 56.9873C33.2687 57.2296 33.2644 57.5227 33.2545 57.7705C32.7225 57.7729 30.3889 57.6625 30.1559 57.9932C29.1383 59.4462 31.9023 59.1355 32.6559 59.1367C33.019 59.1456 33.137 59.0817 33.3023 59.4189C33.2936 59.5328 33.3103 59.5989 33.1998 59.6748C32.7879 59.9566 30.9374 59.8857 30.4732 59.8467C30.4135 59.8736 30.2044 59.9709 30.1734 60.0107C29.1308 61.3504 31.3607 61.1535 32.0455 61.1484C32.4949 61.1451 32.8809 61.1515 33.2818 61.168L33.2643 62.0664C32.1114 62.0895 29.2894 62.4461 29.0602 60.9365C28.9587 60.2687 29.1935 60.0407 29.5523 59.5381C29.5171 59.3273 29.3075 59.1443 29.1559 58.9814C28.8919 57.3009 29.5596 56.9646 31.1637 56.9424Z" fill="#010101"/>
<path d="M27.4188 52.1884C27.7232 51.405 28.1964 49.729 29.3162 49.9227C30.1406 50.066 30.6126 51.8532 30.8797 52.5428C31.0605 53.0095 31.3752 53.7604 31.491 54.2206C31.6334 54.5373 31.7844 54.8975 31.9481 55.2001C31.6188 55.202 31.175 55.2539 30.9188 55.0878C30.7851 54.9196 30.7676 54.8004 30.7117 54.5936C30.455 54.2177 29.6278 51.5689 29.3631 51.0135C29.3059 50.8936 29.1298 50.889 29.0125 50.8876C28.5729 51.1226 27.6701 54.3204 27.1688 55.1141L27.1502 55.1415C26.7829 55.1356 26.6375 55.1666 26.283 55.2323C26.6491 54.2131 27.0274 53.198 27.4188 52.1884Z" fill="#010101"/>
<path d="M44.9729 54.1256C45.1416 54.4194 45.4109 54.9175 45.6057 55.1706C44.9821 55.166 44.6948 55.2799 44.3399 54.7042C44.6615 54.7108 44.7226 54.8229 44.9232 54.7662C45.0349 54.597 44.987 54.3408 44.9729 54.1256Z" fill="#010101"/>
<path d="M35.8119 54.0837C35.8752 54.3222 35.904 54.6024 36.0597 54.7595C36.2688 54.8419 36.4276 54.8334 36.6239 54.7056C36.6383 55.1132 36.412 55.3661 36.0039 55.1961C35.6962 54.8417 35.785 54.5659 35.8119 54.0837Z" fill="#010101"/>
<path d="M50.0433 54.437C50.0694 54.6562 50.0303 54.6573 50.1667 54.777C50.4913 54.8039 50.5086 54.7449 50.7313 55.0093C50.6143 55.2298 50.1233 55.3459 49.887 55.076C49.829 54.8741 49.9588 54.6414 50.0433 54.437Z" fill="#010101"/>
<path d="M16.3709 51.6664C16.7693 50.619 17.0247 49.6294 18.4393 50.098C18.9702 50.274 19.5952 52.5977 19.8699 53.1869C20.1639 53.8172 20.2997 54.5355 20.6385 55.1761L19.6658 55.14C19.0686 53.8718 18.7346 52.3999 18.1365 51.1234C18.0302 50.8964 17.8952 50.8576 17.6883 50.9301C17.2259 51.5062 16.4773 54.1731 15.952 55.0013L15.9442 55.0414C15.8196 55.1817 15.2916 55.1913 14.9598 55.2679C15.0555 55.0347 15.1724 54.7904 15.2781 54.5599C15.6354 53.5946 16.0075 52.6216 16.3709 51.6664Z" fill="#010101"/>
<path d="M33.8594 17.8928C33.8681 17.8809 33.8764 17.8688 33.8855 17.8572C34.453 17.137 38.8277 16.4877 39.9081 16.3878C42.1425 16.1813 44.8854 16.3651 46.6678 17.8835C47.4264 18.5297 47.9594 19.7092 48.0293 20.6983C48.2353 23.6153 46.3594 26.4865 44.5184 28.5901C39.3827 34.4585 30.35 39.6365 22.4556 40.1493C20.3513 40.286 17.6937 40.09 16.029 38.6316C15.1462 37.8582 14.6789 36.8643 14.6041 35.6973C14.4299 32.9801 16.2591 30.0044 18.0084 28.0388C18.1423 27.8884 18.3331 27.6544 18.5494 27.6429C18.6327 27.6385 18.6737 27.6493 18.7481 27.6842L18.8212 27.831C18.7351 28.5143 18.3869 28.9608 18.0849 29.5505C16.9514 31.763 16.7276 34.675 19.2358 36.0575C21.7149 37.4239 25.4161 36.9658 28.0419 36.1749C33.4396 34.5212 39.9506 30.5543 42.8635 25.5329C47.1656 18.1165 39.9206 16.284 34.0516 17.9586L33.8594 17.8928Z" fill="#1AFEAF"/>
<path d="M18.8242 14.6631C19.0196 14.8546 19.1779 16.4041 19.2221 16.7595C19.8069 21.4697 21.9438 25.7364 26.1663 28.1628C28.45 29.4751 30.9197 30.3458 33.3689 31.3115C34.1624 31.6244 34.9237 32.0309 35.717 32.3256C35.368 32.6821 34.8652 32.9498 34.4326 33.1962C33.8827 33.5364 33.4033 33.8573 32.7775 34.0287C31.9812 33.8478 31.0642 33.3728 30.2973 33.166C24.7382 31.6671 17.826 29.3522 18.6091 22.2075C18.7614 20.817 18.6937 19.085 18.7951 17.6493C18.8617 16.705 18.7624 15.6394 18.8242 14.6631Z" fill="#00629B"/>
<path d="M18.7481 27.6843C18.9273 27.3581 18.6769 26.6111 18.7914 26.1876L18.8686 26.1894C19.2003 26.7236 19.1504 26.9987 19.6907 27.7736C21.6278 30.5519 24.3292 31.5976 27.4681 32.6052C28.2764 32.8647 31.3298 33.6969 32.2423 34.192C32.24 34.2317 32.2376 34.2716 32.2352 34.3113C31.9094 34.6893 28.3227 36.0416 27.7416 36.0389C26.9106 36.035 23.7346 34.8861 22.9833 34.5058C22.485 34.2514 22.0195 33.9372 21.5972 33.5702C20.1047 32.281 19.3532 30.4068 18.9975 28.4977C18.9531 28.259 18.9566 28.0184 18.839 27.8027L18.8212 27.8311L18.7481 27.6843Z" fill="#00629B"/>
<path d="M37.9785 34.4937C38.1556 34.4886 38.261 34.5498 38.3664 34.6921C40.0455 36.9576 39.976 39.9692 39.3172 42.5853C39.2497 42.8535 39.2611 43.3155 39.2142 43.5781C39.1173 44.1213 38.7818 46.2175 38.4616 46.5083C38.3944 46.3983 38.4854 45.8093 38.474 45.5945C38.2688 41.7225 36.5854 39.9568 33.0904 38.192C32.8246 38.0613 32.3774 37.9433 32.4351 37.6302C32.5207 37.534 35.5116 36.0305 35.7101 36.0033C35.9016 36.0585 36.2003 36.3524 36.3589 36.4945C37.5516 37.5645 38.402 38.9626 38.8036 40.5137C38.8514 40.6923 39.1356 42.0377 39.1846 42.0823C39.1953 42.0655 39.2061 42.0486 39.2169 42.0318C39.5974 39.9479 37.3239 36.676 35.9551 35.8385C36.3302 35.5071 37.4846 34.809 37.9785 34.4937Z" fill="#00629B"/>
<path d="M22.2784 2.00586C22.3972 2.38332 22.3833 2.59458 22.3898 2.98633C22.6942 9.58225 25.6471 14.5436 31.7804 17.0947C32.3644 17.3377 33.1034 17.8238 33.7394 17.9287L33.8595 17.8926L34.0519 17.959C34.4184 18.9773 41.5179 19.3336 42.2872 26.126C42.1543 26.4031 41.5691 27.2193 41.339 27.6104C41.188 26.9289 40.6746 25.8856 40.2569 25.3154C36.3152 19.9356 28.2083 20.905 23.7716 16.1514C22.799 15.1031 21.6622 13.2004 21.628 11.7451C21.5609 8.88048 22.0153 6.04926 22.1163 3.19531C22.102 2.7844 22.0499 2.3283 22.211 1.95312L22.2784 2.00586Z" fill="#2A86B7" fill-opacity="0.980392"/>
<path d="M21.7696 13.4648C21.9723 13.5998 22.0978 14.0824 22.1788 14.334C22.4197 14.9058 23.1268 15.8526 23.5519 16.3164C27.7176 20.8613 35.0987 20.2437 39.3585 24.6377C40.3781 25.6895 40.5322 26.5018 41.1339 27.6387C40.7514 28.2192 40.2845 28.6889 39.7911 29.1738C37.0621 25.6732 32.3472 24.433 28.3556 22.9902C26.7697 22.417 25.5157 22.0339 24.257 20.8555C22.5265 19.2353 21.7812 16.4204 21.7355 14.1084C21.7214 13.9074 21.6713 13.6229 21.7696 13.4648Z" fill="#06547E" fill-opacity="0.980392"/>
</svg>
