<svg width="37" height="40" viewBox="0 0 37 40" fill="none" xmlns="http://www.w3.org/2000/svg">
<path d="M9.16667 18.125V10.9583C9.16667 8.58244 10.1105 6.30385 11.7905 4.62384C13.4705 2.94382 15.7491 2 18.125 2C20.5009 2 22.7795 2.94382 24.4595 4.62384C26.1395 6.30385 27.0833 8.58244 27.0833 10.9583V18.125M5.58333 18.125H30.6667C32.6457 18.125 34.25 19.7293 34.25 21.7083V34.25C34.25 36.229 32.6457 37.8333 30.6667 37.8333H5.58333C3.60431 37.8333 2 36.229 2 34.25V21.7083C2 19.7293 3.60431 18.125 5.58333 18.125Z" stroke="#1E1E1E" stroke-width="4" stroke-linecap="round" stroke-linejoin="round"/>
</svg>
